<?xml version="1.0"?><!DOCTYPE svg  PUBLIC '-//W3C//DTD SVG 1.1//EN'  'http://www.w3.org/Graphics/SVG/1.1/DTD/svg11.dtd'><svg xmlns="http://www.w3.org/2000/svg" xmlns:xlink="http://www.w3.org/1999/xlink" version="1.1" id="Layer_1" width="512px" height="512px" viewBox="0 0 512 512" enable-background="new 0 0 512 512" xml:space="preserve"><g><path d="M130.79,279.904c15.055,14.232,34.828,21.345,54.603,21.345c19.769,0,39.548-7.113,54.597-21.345   c28.22-26.675,27.413-71.345-1.874-103.902l-11.588-12.883c11.689-2.055,17.81-12.056,17.81-22.014   c0-11.158-7.639-22.455-22.247-22.455h-0.303c2.123-3.95,4.427-7.952,6.704-11.886c7.342-12.671,11.838-20.756,11.838-27.237   c0-15.161-12.331-27.498-27.497-27.498c-4.958,0-9.757,1.322-13.951,3.801c-8.132-4.958-19.094-4.948-27.211,0   c-4.198-2.479-9.003-3.801-13.961-3.801c-15.155,0-27.487,12.336-27.487,27.498c0,6.481,4.496,14.577,11.844,27.243   c2.277,3.934,4.575,7.931,6.699,11.88h-0.313c-14.599,0-22.242,11.296-22.242,22.455c0,10.017,6.211,20.071,18.038,22.041   l-11.467,12.74C102.698,207.81,101.838,252.528,130.79,279.904z M153.823,99.959c-4.226-7.289-10.017-17.279-10.017-20.432   c0-7.671,6.237-13.908,13.902-13.908c3.509,0,6.864,1.306,9.443,3.684c2.654,2.453,6.753,2.389,9.343-0.127   c4.72-4.586,12.831-4.592,17.571,0.011c2.585,2.511,6.688,2.569,9.338,0.117c2.574-2.378,5.924-3.684,9.428-3.684   c7.67,0,13.913,6.237,13.913,13.908c0,3.153-5.786,13.133-10.012,20.427c-3.397,5.855-7.124,12.347-10.182,18.696H164   C160.947,112.306,157.221,105.814,153.823,99.959z M139.799,141.104c0-1.486,0.419-8.865,8.652-8.865h73.639   c8.244,0,8.658,7.39,8.658,8.865s-0.414,8.865-8.658,8.865h-73.639C140.218,149.97,139.799,142.58,139.799,141.104z    M162.146,163.559h46.491l19.376,21.536c21.122,23.479,28.814,60.192,2.644,84.935c-24.96,23.59-65.569,23.596-90.529,0   c-23.331-22.067-22.237-58.525,2.648-84.94L162.146,163.559z"/><path d="M185.271,248.95c-7.968,0-13.521-4.363-13.521-8.275c0-3.753-3.042-6.79-6.795-6.79s-6.795,3.036-6.795,6.79   c0,10.346,8.53,18.733,20.32,21.122v6.221c0,3.753,3.042,6.795,6.79,6.795c3.753,0,6.795-3.042,6.795-6.795v-6.221   c11.79-2.389,20.32-10.776,20.32-21.122c0-17.205-15.606-19.949-25.937-21.759c-12.226-2.155-14.699-3.567-14.699-8.388   c0-3.917,5.553-8.281,13.521-8.281c7.973,0,13.525,4.363,13.525,8.281c0,3.748,3.042,6.795,6.795,6.795s6.795-3.047,6.795-6.795   c0-10.351-8.53-18.739-20.32-21.122v-6.227c0-3.748-3.042-6.79-6.795-6.79c-3.748,0-6.79,3.042-6.79,6.79v6.227   c-11.79,2.383-20.32,10.771-20.32,21.122c0,17.21,15.612,19.949,25.938,21.765c12.225,2.15,14.698,3.557,14.698,8.382   C198.796,244.587,193.243,248.95,185.271,248.95z"/><path d="M471.081,209.36H359.164V107.444c0-10.59-3.801-19.769-11.297-27.259l-57.501-57.501   c-7.49-7.496-16.663-11.296-27.259-11.296H42.994c-17.423,0-31.606,14.184-31.606,31.612v390.174   c0,17.428,14.184,31.606,31.606,31.606h233.448v6.307c0,16.281,13.245,29.525,29.525,29.525h165.113   c16.281,0,29.531-13.245,29.531-29.525V238.891C500.612,222.61,487.362,209.36,471.081,209.36z M487.022,238.891v21.579H290.027   v-21.579c0-8.786,7.155-15.941,15.94-15.941h165.113C479.872,222.95,487.022,230.105,487.022,238.891z M329.521,81.05h-37.695   c-1.264,0-2.33-1.067-2.33-2.331v-37.7L329.521,81.05z M42.994,451.196c-9.933,0-18.017-8.085-18.017-18.022V43   c0-9.938,8.084-18.022,18.017-18.022h220.113c4.81,0,9.02,1.226,12.805,3.557V78.72c0,8.78,7.14,15.915,15.914,15.915h50.191   c2.33,3.791,3.557,8,3.557,12.81V209.36h-39.606c-16.28,0-29.525,13.25-29.525,29.531v87.297H60.368   c-3.753,0-6.795,3.047-6.795,6.795c0,3.753,3.042,6.794,6.795,6.794h216.074v28.597H60.368c-3.753,0-6.795,3.042-6.795,6.79   c0,3.758,3.042,6.795,6.795,6.795h216.074v28.602H60.368c-3.753,0-6.795,3.037-6.795,6.79s3.042,6.795,6.795,6.795h216.074v27.052   H42.994z M471.081,487.022H305.968c-8.785,0-15.94-7.145-15.94-15.936V274.059h196.995v197.028   C487.022,479.877,479.872,487.022,471.081,487.022z"/><path d="M344.523,284.379h-34.766c-3.747,0-6.789,3.047-6.789,6.795v27.816c0,3.753,3.042,6.795,6.789,6.795h34.766   c3.753,0,6.795-3.042,6.795-6.795v-27.816C351.318,287.426,348.276,284.379,344.523,284.379z M337.733,312.195h-21.181v-14.227   h21.181V312.195z"/><path d="M467.291,284.379h-34.765c-3.753,0-6.795,3.047-6.795,6.795v27.816c0,3.753,3.042,6.795,6.795,6.795h34.765   c3.753,0,6.795-3.042,6.795-6.795v-27.816C474.086,287.426,471.044,284.379,467.291,284.379z M460.496,312.195h-21.175v-14.227   h21.175V312.195z"/><path d="M344.523,334.687h-34.766c-3.747,0-6.789,3.042-6.789,6.789v27.822c0,3.753,3.042,6.794,6.789,6.794h34.766   c3.753,0,6.795-3.042,6.795-6.794v-27.822C351.318,337.729,348.276,334.687,344.523,334.687z M337.733,362.503h-21.181v-14.232   h21.181V362.503z"/><path d="M405.904,334.687H371.14c-3.753,0-6.795,3.042-6.795,6.789v27.822c0,3.753,3.042,6.794,6.795,6.794h34.765   c3.753,0,6.795-3.042,6.795-6.794v-27.822C412.699,337.729,409.657,334.687,405.904,334.687z M399.109,362.503h-21.175v-14.232   h21.175V362.503z"/><path d="M467.291,334.687h-34.765c-3.753,0-6.795,3.042-6.795,6.789v27.822c0,3.753,3.042,6.794,6.795,6.794h34.765   c3.753,0,6.795-3.042,6.795-6.794v-27.822C474.086,337.729,471.044,334.687,467.291,334.687z M460.496,362.503h-21.175v-14.232   h21.175V362.503z"/><path d="M344.523,384.989h-34.766c-3.747,0-6.789,3.042-6.789,6.795v27.816c0,3.753,3.042,6.794,6.789,6.794h34.766   c3.753,0,6.795-3.042,6.795-6.794v-27.816C351.318,388.031,348.276,384.989,344.523,384.989z M337.733,412.811h-21.181v-14.237   h21.181V412.811z"/><path d="M405.904,384.989H371.14c-3.753,0-6.795,3.042-6.795,6.795v27.816c0,3.753,3.042,6.794,6.795,6.794h34.765   c3.753,0,6.795-3.042,6.795-6.794v-27.816C412.699,388.031,409.657,384.989,405.904,384.989z M399.109,412.811h-21.175v-14.237   h21.175V412.811z"/><path d="M467.291,384.989h-34.765c-3.753,0-6.795,3.042-6.795,6.795v27.816c0,3.753,3.042,6.794,6.795,6.794h34.765   c3.753,0,6.795-3.042,6.795-6.794v-27.816C474.086,388.031,471.044,384.989,467.291,384.989z M460.496,412.811h-21.175v-14.237   h21.175V412.811z"/><path d="M344.523,435.297h-34.766c-3.747,0-6.789,3.042-6.789,6.795v27.816c0,3.748,3.042,6.79,6.789,6.79h34.766   c3.753,0,6.795-3.042,6.795-6.79v-27.816C351.318,438.339,348.276,435.297,344.523,435.297z M337.733,463.113h-21.181v-14.227   h21.181V463.113z"/><path d="M405.904,435.297H371.14c-3.753,0-6.795,3.042-6.795,6.795v27.816c0,3.748,3.042,6.79,6.795,6.79h34.765   c3.753,0,6.795-3.042,6.795-6.79v-27.816C412.699,438.339,409.657,435.297,405.904,435.297z M399.109,463.113h-21.175v-14.227   h21.175V463.113z"/><path d="M467.291,435.297h-34.765c-3.753,0-6.795,3.042-6.795,6.795v27.816c0,3.748,3.042,6.79,6.795,6.79h34.765   c3.753,0,6.795-3.042,6.795-6.79v-27.816C474.086,438.339,471.044,435.297,467.291,435.297z M460.496,463.113h-21.175v-14.227   h21.175V463.113z"/></g></svg>