<?xml version="1.0"?><svg viewBox="0 0 24 24" xmlns="http://www.w3.org/2000/svg"><title/><path d="M21,3H18V2.5a.5.5,0,0,0-1,0V3H7V2.5a.5.5,0,0,0-1,0V3H3A2.002,2.002,0,0,0,1,5V21a2.002,2.002,0,0,0,2,2H17.49854l.00073-.00012L17.5,23a.49992.49992,0,0,0,.19208-.039,727.10165,727.10165,0,0,1,.16144-.10748l4.99939-4.99939a.49545.49545,0,0,0,.12127-.2262.44908.44908,0,0,0,.01294-.06415A.46657.46657,0,0,0,23,17.5V5A2.002,2.002,0,0,0,21,3ZM3,4H6V5A.5.5,0,0,0,7,5V4H17V5a.5.5,0,0,0,1,0V4h3a1.0013,1.0013,0,0,1,1,1V8H2V5A1.0013,1.0013,0,0,1,3,4ZM2,21V9H22v8H19a2.002,2.002,0,0,0-2,2v3H3A1.0013,1.0013,0,0,1,2,21Zm16,.293V19a1.0013,1.0013,0,0,1,1-1h2.293Z"/><path d="M11,14a2,2,0,0,0-4,0,.5.5,0,0,0,1,0,1,1,0,1,1,2,.001,2.2031,2.2031,0,0,1-.5293,1.43213L7.12061,18.1748A.49982.49982,0,0,0,7.5,19h3a.5.5,0,0,0,0-1H8.58691l1.64258-1.9165A3.20069,3.20069,0,0,0,11,14Z"/><path d="M13.70605,14.5a2.21241,2.21241,0,0,0-.54345.06738L13.42334,13H15.5a.5.5,0,0,0,0-1H13a.49973.49973,0,0,0-.49316.418l-.49952,2.99951a.49988.49988,0,0,0,.84668.43555,1.2606,1.2606,0,0,1,.94092-.353A1.20636,1.20636,0,0,1,15,16.70508V17a1,1,0,0,1-2,0,.5.5,0,0,0-1,0,2,2,0,0,0,4,0v-.29492A2.22843,2.22843,0,0,0,13.70605,14.5Z"/></svg>