<?xml version="1.0" encoding="UTF-8"?>
<!DOCTYPE svg PUBLIC "-//W3C//DTD SVG 1.1//EN" "http://www.w3.org/Graphics/SVG/1.1/DTD/svg11.dtd">
<svg xmlns="http://www.w3.org/2000/svg" version="1.1" width="615px" height="609px" style="shape-rendering:geometricPrecision; text-rendering:geometricPrecision; image-rendering:optimizeQuality; fill-rule:evenodd; clip-rule:evenodd" xmlns:xlink="http://www.w3.org/1999/xlink">
<g><path style="opacity:1" fill="#fefefe" d="M -0.5,-0.5 C 204.5,-0.5 409.5,-0.5 614.5,-0.5C 614.5,202.5 614.5,405.5 614.5,608.5C 409.5,608.5 204.5,608.5 -0.5,608.5C -0.5,405.5 -0.5,202.5 -0.5,-0.5 Z"/></g>
<g><path style="opacity:1" fill="#050404" d="M 318.5,19.5 C 320.115,25.1238 323.782,28.1238 329.5,28.5C 320.557,43.3211 314.557,59.3211 311.5,76.5C 306.283,94.6658 303.283,113.332 302.5,132.5C 302.5,136.167 302.5,139.833 302.5,143.5C 300.5,143.5 298.5,143.5 296.5,143.5C 296.089,138.662 295.422,133.995 294.5,129.5C 294.5,126.5 294.5,123.5 294.5,120.5C 293.298,96.6481 295.965,73.3148 302.5,50.5C 305.495,38.8404 310.828,28.507 318.5,19.5 Z"/></g>
<g><path style="opacity:1" fill="#2c2b2c" d="M 329.5,28.5 C 323.782,28.1238 320.115,25.1238 318.5,19.5C 323.272,16.3591 327.106,17.3591 330,22.5C 330.789,24.7116 330.622,26.7116 329.5,28.5 Z"/></g>
<g><path style="opacity:1" fill="#e9e9e9" d="M 302.5,50.5 C 295.965,73.3148 293.298,96.6481 294.5,120.5C 293.821,111.432 293.155,102.265 292.5,93C 292.5,91.6667 292.5,90.3333 292.5,89C 293.308,88.6924 293.975,88.1924 294.5,87.5C 294.154,86.3044 293.654,86.3044 293,87.5C 292.748,84.3331 292.582,81.3331 292.5,78.5C 292.968,76.8662 293.968,75.6995 295.5,75C 294.584,74.6258 293.75,74.1258 293,73.5C 293.127,67.7144 292.96,62.2144 292.5,57C 292.613,55.7202 293.28,54.8869 294.5,54.5C 296.098,55.4847 297.765,55.6514 299.5,55C 299.915,52.9737 300.915,51.4737 302.5,50.5 Z"/></g>
<g><path style="opacity:1" fill="#f7f3f3" d="M 311.5,76.5 C 312.672,77.7053 314.005,77.7053 315.5,76.5C 316.305,80.2916 316.638,83.9583 316.5,87.5C 315.726,88.7112 314.893,88.7112 314,87.5C 311.971,90.1262 312.805,91.1262 316.5,90.5C 316.657,91.8734 316.49,93.2068 316,94.5C 313.667,94.1667 311.333,93.8333 309,93.5C 308.626,94.4162 308.126,95.2496 307.5,96C 307.75,103.572 308.083,110.739 308.5,117.5C 307.833,118.5 307.167,119.5 306.5,120.5C 307.441,120.489 308.108,120.989 308.5,122C 308.355,122.772 308.022,123.439 307.5,124C 308.891,125.02 310.391,125.853 312,126.5C 319.409,125.218 326.909,125.218 334.5,126.5C 339.04,125.928 343.374,124.762 347.5,123C 343.148,122.581 342.815,121.914 346.5,121C 345.833,120.667 345.167,120.333 344.5,120C 346.5,119.333 347.833,118 348.5,116C 347.826,114.249 347.493,112.583 347.5,111C 350.988,109.284 354.488,109.451 358,111.5C 358.667,110.833 359.333,110.167 360,109.5C 371.16,110.295 381.493,110.295 391,109.5C 395.62,110.103 400.12,111.103 404.5,112.5C 405.5,112.333 406.5,112.167 407.5,112C 405.833,111.667 404.167,111.333 402.5,111C 407.238,109.656 411.905,109.489 416.5,110.5C 416.187,113.247 416.52,115.914 417.5,118.5C 418.833,117.167 420.167,115.833 421.5,114.5C 422.354,115.522 423.354,116.355 424.5,117C 419.292,121.715 420.626,123.548 428.5,122.5C 428.917,125.079 428.25,127.246 426.5,129C 429.888,129.582 432.721,131.082 435,133.5C 437.919,132.813 440.752,131.813 443.5,130.5C 444.695,134.444 446.028,138.278 447.5,142C 451.833,142.333 456.167,142.667 460.5,143C 459.304,143.654 459.304,144.154 460.5,144.5C 461.524,143.147 462.857,142.48 464.5,142.5C 464.5,143.833 464.5,145.167 464.5,146.5C 462.801,146.34 461.134,146.506 459.5,147C 459.833,147.333 460.167,147.667 460.5,148C 459.167,148.333 457.833,148.667 456.5,149C 457.536,150.617 458.703,150.784 460,149.5C 460.249,150.624 460.749,151.624 461.5,152.5C 461.833,151.833 462.167,151.167 462.5,150.5C 464.416,151.248 466.416,151.248 468.5,150.5C 468.336,153.187 468.503,155.854 469,158.5C 470,157.167 471,157.167 472,158.5C 472.49,157.207 472.657,155.873 472.5,154.5C 473.833,154.5 475.167,154.5 476.5,154.5C 476.67,155.822 476.337,156.989 475.5,158C 477.474,161.536 478.141,165.202 477.5,169C 477.241,170.261 476.574,171.261 475.5,172C 477.698,173.67 478.032,175.67 476.5,178C 477.282,180.74 477.782,183.574 478,186.5C 480.033,185.984 480.033,186.65 478,188.5C 476.242,187.531 475.742,186.364 476.5,185C 463.841,185.014 451.174,185.181 438.5,185.5C 450.31,184.177 462.31,183.511 474.5,183.5C 473.076,176.651 470.076,170.651 465.5,165.5C 464.345,162.525 462.678,159.858 460.5,157.5C 456.18,156.834 451.68,156.501 447,156.5C 423.333,157.01 399.833,157.677 376.5,158.5C 371.167,158.5 365.833,158.5 360.5,158.5C 360.918,157.778 361.584,157.278 362.5,157C 371.679,154.555 380.846,154.388 390,156.5C 412.959,156.154 435.793,155.654 458.5,155C 455.503,150.668 451.503,146.668 446.5,143C 410.173,143.247 373.839,143.413 337.5,143.5C 337.34,141.801 337.506,140.134 338,138.5C 338.333,138.833 338.667,139.167 339,139.5C 339.71,138.027 340.876,137.36 342.5,137.5C 341.375,139.129 340.041,140.629 338.5,142C 356.005,142.829 373.338,142.662 390.5,141.5C 392.5,141.5 394.5,141.5 396.5,141.5C 412.17,141.667 427.837,141.5 443.5,141C 442.956,140.283 442.289,139.783 441.5,139.5C 439.999,138.248 438.332,137.248 436.5,136.5C 424.449,128.643 411.116,124.143 396.5,123C 382.744,121.979 369.077,122.646 355.5,125C 354.29,126.039 353.29,127.206 352.5,128.5C 352.167,128.5 351.833,128.5 351.5,128.5C 351.5,127.5 351.5,126.5 351.5,125.5C 345.811,126.115 340.144,126.948 334.5,128C 333.589,130.415 331.922,131.915 329.5,132.5C 330.29,131.206 331.29,130.039 332.5,129C 331.667,128.833 330.833,128.667 330,128.5C 320.983,130.907 311.817,132.24 302.5,132.5C 303.283,113.332 306.283,94.6658 311.5,76.5 Z"/></g>
<g><path style="opacity:1" fill="#b63839" d="M 436.5,136.5 C 433.143,135.988 430.143,134.655 427.5,132.5C 424.065,134.658 420.399,134.992 416.5,133.5C 418.046,132.316 419.713,131.316 421.5,130.5C 409.8,126.216 397.634,124.216 385,124.5C 375.505,125.095 366.005,125.595 356.5,126C 355.529,127.481 354.196,128.315 352.5,128.5C 353.29,127.206 354.29,126.039 355.5,125C 369.077,122.646 382.744,121.979 396.5,123C 411.116,124.143 424.449,128.643 436.5,136.5 Z"/></g>
<g><path style="opacity:1" fill="#be2025" d="M 436.5,136.5 C 438.332,137.248 439.999,138.248 441.5,139.5C 426.5,140.167 411.5,140.833 396.5,141.5C 394.5,141.5 392.5,141.5 390.5,141.5C 374.163,141.667 357.83,141.5 341.5,141C 343.16,139.512 344.16,137.679 344.5,135.5C 346.5,132.833 348.833,130.5 351.5,128.5C 351.833,128.5 352.167,128.5 352.5,128.5C 354.196,128.315 355.529,127.481 356.5,126C 366.005,125.595 375.505,125.095 385,124.5C 397.634,124.216 409.8,126.216 421.5,130.5C 419.713,131.316 418.046,132.316 416.5,133.5C 420.399,134.992 424.065,134.658 427.5,132.5C 430.143,134.655 433.143,135.988 436.5,136.5 Z"/></g>
<g><path style="opacity:1" fill="#b03133" d="M 210.5,127.5 C 220.839,127.334 231.172,127.5 241.5,128C 243.382,128.198 245.048,128.698 246.5,129.5C 231.149,129.308 215.816,129.641 200.5,130.5C 203.78,129.288 207.113,128.288 210.5,127.5 Z"/></g>
<g><path style="opacity:1" fill="#fde1e2" d="M 294.5,131.5 C 291.663,133.402 288.329,134.069 284.5,133.5C 272.016,131.784 259.35,130.451 246.5,129.5C 245.048,128.698 243.382,128.198 241.5,128C 231.172,127.5 220.839,127.334 210.5,127.5C 210.918,126.778 211.584,126.278 212.5,126C 217.833,125.833 223.167,125.667 228.5,125.5C 250.449,128.252 272.449,130.252 294.5,131.5 Z"/></g>
<g><path style="opacity:1" fill="#bd2025" d="M 246.5,129.5 C 259.35,130.451 272.016,131.784 284.5,133.5C 286.877,134.887 289.543,135.721 292.5,136C 293.423,138.041 293.756,140.208 293.5,142.5C 279.656,142.171 265.99,142.504 252.5,143.5C 227.831,143.667 203.164,143.5 178.5,143C 179.337,141.989 179.67,140.822 179.5,139.5C 186.92,137.285 193.92,134.285 200.5,130.5C 215.816,129.641 231.149,129.308 246.5,129.5 Z"/></g>
<g><path style="opacity:1" fill="#b42f2f" d="M 329.5,132.5 C 327.589,133.075 325.922,134.075 324.5,135.5C 317.707,133.777 310.707,133.111 303.5,133.5C 303.5,136.167 303.5,138.833 303.5,141.5C 308.167,141.5 312.833,141.5 317.5,141.5C 317.389,142.117 317.056,142.617 316.5,143C 311.845,143.499 307.179,143.666 302.5,143.5C 302.5,139.833 302.5,136.167 302.5,132.5C 311.817,132.24 320.983,130.907 330,128.5C 330.833,128.667 331.667,128.833 332.5,129C 331.29,130.039 330.29,131.206 329.5,132.5 Z"/></g>
<g><path style="opacity:1" fill="#9e2f31" d="M 294.5,129.5 C 295.422,133.995 296.089,138.662 296.5,143.5C 281.833,143.5 267.167,143.5 252.5,143.5C 265.99,142.504 279.656,142.171 293.5,142.5C 293.756,140.208 293.423,138.041 292.5,136C 289.543,135.721 286.877,134.887 284.5,133.5C 288.329,134.069 291.663,133.402 294.5,131.5C 294.5,130.833 294.5,130.167 294.5,129.5 Z"/></g>
<g><path style="opacity:1" fill="#be2226" d="M 324.5,135.5 C 322.761,138.243 320.427,140.243 317.5,141.5C 312.833,141.5 308.167,141.5 303.5,141.5C 303.5,138.833 303.5,136.167 303.5,133.5C 310.707,133.111 317.707,133.777 324.5,135.5 Z"/></g>
<g><path style="opacity:1" fill="#9a3739" d="M 441.5,139.5 C 442.289,139.783 442.956,140.283 443.5,141C 427.837,141.5 412.17,141.667 396.5,141.5C 411.5,140.833 426.5,140.167 441.5,139.5 Z"/></g>
<g><path style="opacity:1" fill="#ab3838" d="M 344.5,135.5 C 344.16,137.679 343.16,139.512 341.5,141C 357.83,141.5 374.163,141.667 390.5,141.5C 373.338,142.662 356.005,142.829 338.5,142C 340.041,140.629 341.375,139.129 342.5,137.5C 342.833,136.5 343.5,135.833 344.5,135.5 Z"/></g>
<g><path style="opacity:1" fill="#ae3334" d="M 200.5,130.5 C 193.92,134.285 186.92,137.285 179.5,139.5C 179.67,140.822 179.337,141.989 178.5,143C 203.164,143.5 227.831,143.667 252.5,143.5C 239.344,144.496 226.01,144.829 212.5,144.5C 198.791,145.148 185.458,144.481 172.5,142.5C 181.098,136.87 190.431,132.87 200.5,130.5 Z"/></g>
<g><path style="opacity:1" fill="#e1a1a0" d="M 172.5,142.5 C 185.458,144.481 198.791,145.148 212.5,144.5C 198.339,145.661 184.006,145.827 169.5,145C 170.373,143.955 171.373,143.122 172.5,142.5 Z"/></g>
<g><path style="opacity:1" fill="#a94543" d="M 460.5,157.5 C 449.833,157.833 439.167,158.167 428.5,158.5C 411.167,158.5 393.833,158.5 376.5,158.5C 399.833,157.677 423.333,157.01 447,156.5C 451.68,156.501 456.18,156.834 460.5,157.5 Z"/></g>
<g><path style="opacity:1" fill="#ad2a2e" d="M 360.5,158.5 C 365.833,158.5 371.167,158.5 376.5,158.5C 393.833,158.5 411.167,158.5 428.5,158.5C 393.998,159.167 359.331,159.833 324.5,160.5C 321.738,163.357 320.071,166.691 319.5,170.5C 318.5,170.5 317.5,170.5 316.5,170.5C 318.386,166.601 320.719,162.934 323.5,159.5C 335.815,158.501 348.149,158.168 360.5,158.5 Z"/></g>
<g><path style="opacity:1" fill="#be2025" d="M 460.5,157.5 C 462.678,159.858 464.345,162.525 465.5,165.5C 465.603,168.219 465.269,170.885 464.5,173.5C 465.482,176.533 467.482,178.2 470.5,178.5C 470.5,179.5 470.5,180.5 470.5,181.5C 458.845,182.203 447.179,182.87 435.5,183.5C 428.806,183.462 422.139,183.129 415.5,182.5C 411.111,182.878 406.777,183.878 402.5,185.5C 386.178,186.413 369.845,187.246 353.5,188C 351.618,188.198 349.952,188.698 348.5,189.5C 337.147,189.832 325.814,189.499 314.5,188.5C 314.709,187.914 315.043,187.414 315.5,187C 314.234,186.691 313.067,186.191 312,185.5C 311.505,183.527 311.338,181.527 311.5,179.5C 312.41,176.008 314.076,173.008 316.5,170.5C 317.5,170.5 318.5,170.5 319.5,170.5C 320.071,166.691 321.738,163.357 324.5,160.5C 359.331,159.833 393.998,159.167 428.5,158.5C 439.167,158.167 449.833,157.833 460.5,157.5 Z"/></g>
<g><path style="opacity:1" fill="#b23d3d" d="M 236.5,159.5 C 257.844,159.167 279.177,159.5 300.5,160.5C 298.159,164.165 295.493,167.499 292.5,170.5C 292.67,169.178 292.337,168.011 291.5,167C 292.891,165.98 294.391,165.147 296,164.5C 296.483,163.552 296.649,162.552 296.5,161.5C 248.5,161.5 200.5,161.5 152.5,161.5C 180.5,160.833 208.5,160.167 236.5,159.5 Z"/></g>
<g><path style="opacity:1" fill="#be2025" d="M 152.5,161.5 C 200.5,161.5 248.5,161.5 296.5,161.5C 296.649,162.552 296.483,163.552 296,164.5C 294.391,165.147 292.891,165.98 291.5,167C 292.337,168.011 292.67,169.178 292.5,170.5C 287.766,177.91 283.433,185.577 279.5,193.5C 273.167,193.5 266.833,193.5 260.5,193.5C 251.473,193.749 242.473,193.416 233.5,192.5C 231.312,192.307 229.645,193.141 228.5,195C 220.104,194.86 212.104,195.693 204.5,197.5C 199.213,198.342 193.88,198.676 188.5,198.5C 179.851,199.203 171.185,199.536 162.5,199.5C 153.46,199.252 144.46,199.585 135.5,200.5C 138.224,193.167 141.057,185.834 144,178.5C 145.447,176.597 147.114,174.93 149,173.5C 149.395,170.793 149.895,168.127 150.5,165.5C 150.733,163.938 151.4,162.605 152.5,161.5 Z"/></g>
<g><path style="opacity:1" fill="#fce6e4" d="M 236.5,159.5 C 208.5,160.167 180.5,160.833 152.5,161.5C 151.4,162.605 150.733,163.938 150.5,165.5C 141.936,175.969 136.603,187.969 134.5,201.5C 144.006,201.143 153.34,200.476 162.5,199.5C 171.185,199.536 179.851,199.203 188.5,198.5C 187.391,199.29 186.058,199.79 184.5,200C 169.842,201.045 155.175,201.878 140.5,202.5C 138.143,202.663 135.81,202.497 133.5,202C 132.941,201.275 132.608,200.442 132.5,199.5C 133.985,193.219 136.151,187.219 139,181.5C 139.042,178.704 139.209,176.037 139.5,173.5C 141.716,172.797 143.549,171.464 145,169.5C 147.167,166.333 149.333,163.167 151.5,160C 179.831,159.5 208.165,159.333 236.5,159.5 Z"/></g>
<g><path style="opacity:1" fill="#b3292b" d="M 465.5,165.5 C 470.076,170.651 473.076,176.651 474.5,183.5C 462.31,183.511 450.31,184.177 438.5,185.5C 435.833,185.5 433.167,185.5 430.5,185.5C 421.167,185.5 411.833,185.5 402.5,185.5C 406.777,183.878 411.111,182.878 415.5,182.5C 422.139,183.129 428.806,183.462 435.5,183.5C 447.179,182.87 458.845,182.203 470.5,181.5C 470.5,180.5 470.5,179.5 470.5,178.5C 467.482,178.2 465.482,176.533 464.5,173.5C 465.269,170.885 465.603,168.219 465.5,165.5 Z"/></g>
<g><path style="opacity:1" fill="#af3135" d="M 150.5,165.5 C 149.895,168.127 149.395,170.793 149,173.5C 147.114,174.93 145.447,176.597 144,178.5C 141.057,185.834 138.224,193.167 135.5,200.5C 144.46,199.585 153.46,199.252 162.5,199.5C 153.34,200.476 144.006,201.143 134.5,201.5C 136.603,187.969 141.936,175.969 150.5,165.5 Z"/></g>
<g><path style="opacity:1" fill="#b54240" d="M 402.5,185.5 C 411.833,185.5 421.167,185.5 430.5,185.5C 403.35,187.403 376.017,188.736 348.5,189.5C 349.952,188.698 351.618,188.198 353.5,188C 369.845,187.246 386.178,186.413 402.5,185.5 Z"/></g>
<g><path style="opacity:1" fill="#b12d2e" d="M 311.5,179.5 C 311.338,181.527 311.505,183.527 312,185.5C 313.067,186.191 314.234,186.691 315.5,187C 315.043,187.414 314.709,187.914 314.5,188.5C 325.814,189.499 337.147,189.832 348.5,189.5C 334.321,190.605 319.988,191.605 305.5,192.5C 306.361,187.557 308.361,183.224 311.5,179.5 Z"/></g>
<g><path style="opacity:1" fill="#b02e2f" d="M 260.5,193.5 C 257.833,194.167 255.167,194.833 252.5,195.5C 236.5,196.167 220.5,196.833 204.5,197.5C 212.104,195.693 220.104,194.86 228.5,195C 229.645,193.141 231.312,192.307 233.5,192.5C 242.473,193.416 251.473,193.749 260.5,193.5 Z"/></g>
<g><path style="opacity:1" fill="#c66464" d="M 260.5,193.5 C 266.833,193.5 273.167,193.5 279.5,193.5C 270.679,194.551 261.679,195.217 252.5,195.5C 255.167,194.833 257.833,194.167 260.5,193.5 Z"/></g>
<g><path style="opacity:1" fill="#be2025" d="M 481.5,203.5 C 485.059,215.186 486.726,227.186 486.5,239.5C 483.833,239.5 481.167,239.5 478.5,239.5C 462.598,240.398 446.765,240.398 431,239.5C 428.883,241.543 426.55,241.876 424,240.5C 422.274,240.946 420.774,241.779 419.5,243C 411.591,244.222 403.925,245.722 396.5,247.5C 385.827,248.773 375.16,250.107 364.5,251.5C 362.833,251.5 361.167,251.5 359.5,251.5C 353.824,251.334 348.157,251.501 342.5,252C 340.942,252.21 339.609,252.71 338.5,253.5C 331.217,255.162 323.883,255.495 316.5,254.5C 309.795,247.424 305.461,239.09 303.5,229.5C 303.46,224.807 303.127,220.141 302.5,215.5C 323.451,213.623 344.117,211.623 364.5,209.5C 373.506,209.666 382.506,209.5 391.5,209C 395.038,208.465 398.372,207.632 401.5,206.5C 403.833,206.5 406.167,206.5 408.5,206.5C 417.511,206.499 426.511,206.166 435.5,205.5C 439.733,205.282 443.733,205.948 447.5,207.5C 450.859,207.19 453.859,206.023 456.5,204C 463.181,203.666 469.847,203.166 476.5,202.5C 478.258,202.592 479.924,202.925 481.5,203.5 Z"/></g>
<g><path style="opacity:1" fill="#b33232" d="M 468.5,201.5 C 473.294,200.903 477.627,201.57 481.5,203.5C 479.924,202.925 478.258,202.592 476.5,202.5C 469.847,203.166 463.181,203.666 456.5,204C 453.859,206.023 450.859,207.19 447.5,207.5C 443.733,205.948 439.733,205.282 435.5,205.5C 426.511,206.166 417.511,206.499 408.5,206.5C 428.362,204.839 448.362,203.172 468.5,201.5 Z"/></g>
<g><path style="opacity:1" fill="#af3d3e" d="M 401.5,206.5 C 398.372,207.632 395.038,208.465 391.5,209C 382.506,209.5 373.506,209.666 364.5,209.5C 376.663,208.237 388.996,207.237 401.5,206.5 Z"/></g>
<g><path style="opacity:1" fill="#b03a39" d="M 364.5,209.5 C 344.117,211.623 323.451,213.623 302.5,215.5C 303.127,220.141 303.46,224.807 303.5,229.5C 302.662,229.158 302.328,228.492 302.5,227.5C 301.771,222.87 301.437,218.203 301.5,213.5C 322.45,211.461 343.45,210.128 364.5,209.5 Z"/></g>
<g><path style="opacity:1" fill="#b04d4a" d="M 271.5,238.5 C 270.509,231.687 270.175,224.687 270.5,217.5C 266.5,217.5 262.5,217.5 258.5,217.5C 250.191,218.288 241.858,218.621 233.5,218.5C 244.837,217.39 256.337,216.39 268,215.5C 269.5,215.833 271,216.167 272.5,216.5C 271.535,223.776 271.201,231.109 271.5,238.5 Z"/></g>
<g><path style="opacity:1" fill="#b23434" d="M 258.5,217.5 C 258.082,218.222 257.416,218.722 256.5,219C 226.633,220.831 196.633,222.331 166.5,223.5C 188.647,221.322 210.98,219.656 233.5,218.5C 241.858,218.621 250.191,218.288 258.5,217.5 Z"/></g>
<g><path style="opacity:1" fill="#be2025" d="M 258.5,217.5 C 262.5,217.5 266.5,217.5 270.5,217.5C 270.175,224.687 270.509,231.687 271.5,238.5C 272.768,240.905 273.435,243.572 273.5,246.5C 273.708,248.92 273.374,251.253 272.5,253.5C 275.626,253.618 276.959,255.618 276.5,259.5C 262.464,259.67 248.464,260.503 234.5,262C 200.194,266.266 166.528,269.433 133.5,271.5C 131.532,261.275 131.032,250.942 132,240.5C 133.218,238.981 134.718,237.814 136.5,237C 135.167,236.333 135.167,235.667 136.5,235C 134.866,234.506 133.199,234.34 131.5,234.5C 131.5,232.167 131.5,229.833 131.5,227.5C 141.67,226.421 151.67,225.087 161.5,223.5C 163.167,223.5 164.833,223.5 166.5,223.5C 196.633,222.331 226.633,220.831 256.5,219C 257.416,218.722 258.082,218.222 258.5,217.5 Z"/></g>
<g><path style="opacity:1" fill="#f7c6c4" d="M 301.5,213.5 C 301.437,218.203 301.771,222.87 302.5,227.5C 301.027,224.983 300.36,222.15 300.5,219C 300.506,216.967 300.839,215.134 301.5,213.5 Z"/></g>
<g><path style="opacity:1" fill="#b62a2d" d="M 478.5,239.5 C 462.475,241.281 446.475,243.281 430.5,245.5C 422.722,245.454 415.056,246.12 407.5,247.5C 403.833,247.5 400.167,247.5 396.5,247.5C 403.925,245.722 411.591,244.222 419.5,243C 420.774,241.779 422.274,240.946 424,240.5C 426.55,241.876 428.883,241.543 431,239.5C 446.765,240.398 462.598,240.398 478.5,239.5 Z"/></g>
<g><path style="opacity:1" fill="#fbdddc" d="M 396.5,247.5 C 400.167,247.5 403.833,247.5 407.5,247.5C 400.836,249.121 393.836,250.287 386.5,251C 379.174,251.5 371.841,251.666 364.5,251.5C 375.16,250.107 385.827,248.773 396.5,247.5 Z"/></g>
<g><path style="opacity:1" fill="#b44748" d="M 359.5,251.5 C 352.7,252.755 345.7,253.422 338.5,253.5C 339.609,252.71 340.942,252.21 342.5,252C 348.157,251.501 353.824,251.334 359.5,251.5 Z"/></g>
<g><path style="opacity:1" fill="#be2025" d="M 472.5,261.5 C 476.5,261.5 480.5,261.5 484.5,261.5C 484.709,266.623 484.042,271.623 482.5,276.5C 481.795,274.328 480.795,272.328 479.5,270.5C 478.167,273.167 478.167,275.833 479.5,278.5C 480.086,278.291 480.586,277.957 481,277.5C 481.167,279.167 481.333,280.833 481.5,282.5C 480.198,287.744 479.532,293.078 479.5,298.5C 479.5,299.5 479.5,300.5 479.5,301.5C 477.11,306.631 474.943,311.964 473,317.5C 470.281,318.444 467.448,318.777 464.5,318.5C 459.525,317.432 454.525,316.099 449.5,314.5C 448.4,313.442 447.066,312.608 445.5,312C 438.446,310.576 431.446,308.91 424.5,307C 425.716,305.26 427.382,304.26 429.5,304C 428.391,303.362 427.225,302.862 426,302.5C 423.533,304.481 420.699,305.481 417.5,305.5C 411.859,304.402 406.526,302.568 401.5,300C 397.83,299.452 394.163,298.952 390.5,298.5C 375.688,293.757 361.688,287.424 348.5,279.5C 348.62,278.414 349.287,277.747 350.5,277.5C 379.676,273.406 409.009,269.906 438.5,267C 440.611,266.155 442.611,265.322 444.5,264.5C 453.744,262.842 463.078,261.842 472.5,261.5 Z"/></g>
<g><path style="opacity:1" fill="#fbe2e1" d="M 223.5,265.5 C 223.389,266.117 223.056,266.617 222.5,267C 209.413,267.47 196.413,268.303 183.5,269.5C 196.593,267.278 209.927,265.945 223.5,265.5 Z"/></g>
<g><path style="opacity:1" fill="#b13132" d="M 150.5,223.5 C 154.167,223.5 157.833,223.5 161.5,223.5C 151.67,225.087 141.67,226.421 131.5,227.5C 131.5,229.833 131.5,232.167 131.5,234.5C 133.199,234.34 134.866,234.506 136.5,235C 135.167,235.667 135.167,236.333 136.5,237C 134.718,237.814 133.218,238.981 132,240.5C 131.032,250.942 131.532,261.275 133.5,271.5C 166.528,269.433 200.194,266.266 234.5,262C 248.464,260.503 262.464,259.67 276.5,259.5C 276.959,255.618 275.626,253.618 272.5,253.5C 273.374,251.253 273.708,248.92 273.5,246.5C 275.454,250.408 277.454,254.408 279.5,258.5C 279.291,259.086 278.957,259.586 278.5,260C 259.991,261.568 241.657,263.401 223.5,265.5C 209.927,265.945 196.593,267.278 183.5,269.5C 168.968,270.265 154.635,271.599 140.5,273.5C 137.5,273.5 134.5,273.5 131.5,273.5C 128.58,257.584 127.914,241.584 129.5,225.5C 136.663,225.036 143.663,224.369 150.5,223.5 Z"/></g>
<g><path style="opacity:1" fill="#af3837" d="M 444.5,264.5 C 442.611,265.322 440.611,266.155 438.5,267C 409.009,269.906 379.676,273.406 350.5,277.5C 349.287,277.747 348.62,278.414 348.5,279.5C 346.745,278.928 345.078,278.094 343.5,277C 377.102,272.211 410.769,268.044 444.5,264.5 Z"/></g>
<g><path style="opacity:1" fill="#b52c31" d="M 480.5,259.5 C 482.5,259.5 484.5,259.5 486.5,259.5C 486.5,261.833 486.5,264.167 486.5,266.5C 484.812,277.292 482.478,287.958 479.5,298.5C 479.532,293.078 480.198,287.744 481.5,282.5C 481.333,280.833 481.167,279.167 481,277.5C 480.586,277.957 480.086,278.291 479.5,278.5C 478.167,275.833 478.167,273.167 479.5,270.5C 480.795,272.328 481.795,274.328 482.5,276.5C 484.042,271.623 484.709,266.623 484.5,261.5C 480.5,261.5 476.5,261.5 472.5,261.5C 475.053,260.745 477.72,260.078 480.5,259.5 Z"/></g>
<g><path style="opacity:1" fill="#fcdddf" d="M 486.5,266.5 C 486.387,276.294 485.221,285.96 483,295.5C 482.414,298.019 481.247,300.019 479.5,301.5C 479.5,300.5 479.5,299.5 479.5,298.5C 482.478,287.958 484.812,277.292 486.5,266.5 Z"/></g>
<g><path style="opacity:1" fill="#be2025" d="M 316.5,293.5 C 334.576,302.744 353.242,310.41 372.5,316.5C 373.429,317.315 374.429,318.148 375.5,319C 383.492,320.739 391.492,322.406 399.5,324C 396.007,325.088 395.841,326.255 399,327.5C 400.739,326.106 402.739,325.439 405,325.5C 408.175,325.946 411.342,326.446 414.5,327C 412.431,327.324 412.098,328.158 413.5,329.5C 423.697,330.697 434.03,331.364 444.5,331.5C 451.24,332.009 457.907,333.009 464.5,334.5C 441.399,371.268 409.399,396.935 368.5,411.5C 364.484,412.512 360.484,413.512 356.5,414.5C 347.913,414.76 339.579,416.093 331.5,418.5C 324.667,418.833 317.833,419.167 311,419.5C 298.815,418.979 286.648,418.312 274.5,417.5C 235.815,410.576 203.315,392.576 177,363.5C 173,358.833 169,354.167 165,349.5C 161.517,345.193 158.683,340.527 156.5,335.5C 154.585,332 152.918,328.333 151.5,324.5C 150.736,318.607 150.736,314.607 151.5,312.5C 149.326,312.92 147.326,312.92 145.5,312.5C 144.607,309.916 144.274,307.249 144.5,304.5C 143.325,304.719 142.325,304.386 141.5,303.5C 142.167,303.167 142.833,302.833 143.5,302.5C 148.035,301.808 152.369,300.808 156.5,299.5C 162.842,299.666 169.175,299.5 175.5,299C 180.833,298.278 185.833,297.111 190.5,295.5C 190.833,295.5 191.167,295.5 191.5,295.5C 197.509,295.666 203.509,295.499 209.5,295C 231.638,292.466 253.638,289.466 275.5,286C 281.552,285.21 287.552,285.376 293.5,286.5C 296.06,284.168 298.894,283.835 302,285.5C 304.102,287.77 306.602,289.437 309.5,290.5C 310.281,291.729 310.781,293.062 311,294.5C 312.699,293.594 314.533,293.261 316.5,293.5 Z"/></g>
<g><path style="opacity:1" fill="#b23737" d="M 316.5,293.5 C 314.533,293.261 312.699,293.594 311,294.5C 310.781,293.062 310.281,291.729 309.5,290.5C 306.602,289.437 304.102,287.77 302,285.5C 298.894,283.835 296.06,284.168 293.5,286.5C 287.552,285.376 281.552,285.21 275.5,286C 253.638,289.466 231.638,292.466 209.5,295C 203.509,295.499 197.509,295.666 191.5,295.5C 225.656,290.715 259.99,286.381 294.5,282.5C 296.833,282.667 299.167,282.833 301.5,283C 306.566,286.522 311.566,290.022 316.5,293.5 Z"/></g>
<g><path style="opacity:1" fill="#af3b39" d="M 190.5,295.5 C 185.833,297.111 180.833,298.278 175.5,299C 169.175,299.5 162.842,299.666 156.5,299.5C 167.619,297.534 178.952,296.201 190.5,295.5 Z"/></g>
<g><path style="opacity:1" fill="#b52b2e" d="M 156.5,299.5 C 152.369,300.808 148.035,301.808 143.5,302.5C 142.833,302.833 142.167,303.167 141.5,303.5C 142.325,304.386 143.325,304.719 144.5,304.5C 144.274,307.249 144.607,309.916 145.5,312.5C 147.326,312.92 149.326,312.92 151.5,312.5C 150.736,314.607 150.736,318.607 151.5,324.5C 152.918,328.333 154.585,332 156.5,335.5C 149.556,325.282 143.89,314.282 139.5,302.5C 140.949,301.828 142.282,301.161 143.5,300.5C 147.81,299.92 152.143,299.586 156.5,299.5 Z"/></g>
<g><path style="opacity:1" fill="#b03131" d="M 390.5,298.5 C 394.163,298.952 397.83,299.452 401.5,300C 406.526,302.568 411.859,304.402 417.5,305.5C 420.699,305.481 423.533,304.481 426,302.5C 427.225,302.862 428.391,303.362 429.5,304C 427.382,304.26 425.716,305.26 424.5,307C 431.446,308.91 438.446,310.576 445.5,312C 447.066,312.608 448.4,313.442 449.5,314.5C 429.174,311.144 409.507,305.811 390.5,298.5 Z"/></g>
<g><path style="opacity:1" fill="#b42c2d" d="M 372.5,316.5 C 384.859,319.173 397.192,322.006 409.5,325C 421.109,327.268 432.776,329.102 444.5,330.5C 444.5,330.833 444.5,331.167 444.5,331.5C 434.03,331.364 423.697,330.697 413.5,329.5C 412.098,328.158 412.431,327.324 414.5,327C 411.342,326.446 408.175,325.946 405,325.5C 402.739,325.439 400.739,326.106 399,327.5C 395.841,326.255 396.007,325.088 399.5,324C 391.492,322.406 383.492,320.739 375.5,319C 374.429,318.148 373.429,317.315 372.5,316.5 Z"/></g>
<g><path style="opacity:1" fill="#f7f4f4" d="M 368.5,411.5 C 409.399,396.935 441.399,371.268 464.5,334.5C 457.907,333.009 451.24,332.009 444.5,331.5C 444.5,331.167 444.5,330.833 444.5,330.5C 451.555,330.782 458.555,331.449 465.5,332.5C 467.074,329.271 468.741,326.104 470.5,323C 467.833,322.333 467.833,321.667 470.5,321C 468.389,320.155 466.389,319.322 464.5,318.5C 467.448,318.777 470.281,318.444 473,317.5C 474.943,311.964 477.11,306.631 479.5,301.5C 481.247,300.019 482.414,298.019 483,295.5C 485.221,285.96 486.387,276.294 486.5,266.5C 486.5,264.167 486.5,261.833 486.5,259.5C 484.5,259.5 482.5,259.5 480.5,259.5C 481.99,257.72 483.99,257.054 486.5,257.5C 486.207,253.563 486.54,249.73 487.5,246C 485.487,244.209 485.487,242.875 487.5,242C 487,241.5 486.5,241 486,240.5C 467.635,242.848 449.135,244.514 430.5,245.5C 446.475,243.281 462.475,241.281 478.5,239.5C 481.167,239.5 483.833,239.5 486.5,239.5C 486.726,227.186 485.059,215.186 481.5,203.5C 477.627,201.57 473.294,200.903 468.5,201.5C 471.077,200.028 473.911,199.028 477,198.5C 478.011,199.337 479.178,199.67 480.5,199.5C 480.191,196.404 479.191,193.571 477.5,191C 478.272,189.779 479.272,188.779 480.5,188C 483.389,188.881 486.389,189.881 489.5,191C 488.304,191.654 488.304,192.154 489.5,192.5C 490.479,189.223 491.813,188.89 493.5,191.5C 492.167,192.833 492.167,194.167 493.5,195.5C 490.833,196.833 490.833,198.167 493.5,199.5C 492.619,200.971 491.286,201.804 489.5,202C 491.521,202.401 492.855,203.568 493.5,205.5C 493.908,211.399 493.241,217.232 491.5,223C 492.221,227.619 492.887,232.286 493.5,237C 492.951,244.411 492.951,251.911 493.5,259.5C 493.112,262.122 491.612,263.789 489,264.5C 488.51,265.793 488.343,267.127 488.5,268.5C 489.833,268.5 491.167,268.5 492.5,268.5C 492.776,284.947 493.109,301.28 493.5,317.5C 493.167,318.5 492.5,319.167 491.5,319.5C 489.958,318.253 488.458,318.253 487,319.5C 485.493,318.495 484.327,317.162 483.5,315.5C 482.571,316.689 482.238,318.022 482.5,319.5C 480.143,319.337 477.81,319.503 475.5,320C 475.528,321.577 476.195,323.244 477.5,325C 477.211,327.711 477.211,330.378 477.5,333C 476.978,333.95 476.311,334.784 475.5,335.5C 476.585,336.784 477.252,338.284 477.5,340C 476.553,343.246 476.219,346.412 476.5,349.5C 475.726,350.711 474.893,350.711 474,349.5C 473.333,350.167 472.667,350.833 472,351.5C 469.87,351.413 467.703,351.413 465.5,351.5C 463.866,351.032 462.7,350.032 462,348.5C 461.667,348.833 461.333,349.167 461,349.5C 460.941,355.277 460.774,361.111 460.5,367C 457.825,366.401 455.158,366.568 452.5,367.5C 449.885,367.316 447.719,366.316 446,364.5C 445.5,365.5 445,366.5 444.5,367.5C 445.307,372.509 445.64,377.343 445.5,382C 445,382.5 444.5,383 444,383.5C 439.444,383.293 434.611,382.96 429.5,382.5C 428.55,385.068 428.55,387.568 429.5,390C 427.692,391.493 427.692,393.327 429.5,395.5C 429.43,396.772 429.097,397.938 428.5,399C 421.252,399.548 414.085,399.382 407,398.5C 404.376,400.523 403.543,403.023 404.5,406C 402.231,406.758 400.064,406.591 398,405.5C 396.954,407.09 395.787,408.59 394.5,410C 397.602,411.614 397.936,413.447 395.5,415.5C 390.135,415.419 384.802,415.419 379.5,415.5C 377.448,415.384 376.115,414.384 375.5,412.5C 373.257,411.526 370.924,411.192 368.5,411.5 Z"/></g>
<g><path style="opacity:1" fill="#f5f4f4" d="M 139.5,173.5 C 139.209,176.037 139.042,178.704 139,181.5C 136.151,187.219 133.985,193.219 132.5,199.5C 132.608,200.442 132.941,201.275 133.5,202C 135.81,202.497 138.143,202.663 140.5,202.5C 140.631,203.376 140.298,204.043 139.5,204.5C 137.378,204.377 135.211,204.377 133,204.5C 131.508,211.11 130.341,217.777 129.5,224.5C 136.465,223.659 143.465,223.326 150.5,223.5C 143.663,224.369 136.663,225.036 129.5,225.5C 127.914,241.584 128.58,257.584 131.5,273.5C 134.5,273.5 137.5,273.5 140.5,273.5C 137.359,274.321 134.025,274.821 130.5,275C 131.833,275.667 131.833,276.333 130.5,277C 132.481,277.605 132.815,278.605 131.5,280C 133.455,282.168 134.121,284.502 133.5,287C 134.833,290 136.167,293 137.5,296C 137.167,296.333 136.833,296.667 136.5,297C 138.06,299.659 140.393,300.826 143.5,300.5C 142.282,301.161 140.949,301.828 139.5,302.5C 143.89,314.282 149.556,325.282 156.5,335.5C 158.683,340.527 161.517,345.193 165,349.5C 169,354.167 173,358.833 177,363.5C 203.315,392.576 235.815,410.576 274.5,417.5C 302.077,423.558 329.411,422.558 356.5,414.5C 360.484,413.512 364.484,412.512 368.5,411.5C 368.179,413.048 367.179,413.715 365.5,413.5C 365.06,416.109 364.726,418.776 364.5,421.5C 362.117,421.873 359.45,422.373 356.5,423C 358.402,423.199 359.902,424.033 361,425.5C 361.689,424.643 362.522,423.977 363.5,423.5C 364.228,426.212 365.061,428.879 366,431.5C 371.067,431.317 375.734,430.983 380,430.5C 380.167,430.833 380.333,431.167 380.5,431.5C 376.689,432.738 376.689,433.404 380.5,433.5C 379.929,435.36 379.929,437.027 380.5,438.5C 376.167,438.5 371.833,438.5 367.5,438.5C 367.5,447.5 367.5,456.5 367.5,465.5C 369.833,465.5 372.167,465.5 374.5,465.5C 373.569,452.566 375.236,452.233 379.5,464.5C 382.086,465.48 384.753,465.813 387.5,465.5C 388.452,467.112 388.786,468.612 388.5,470C 388,470.167 387.5,470.333 387,470.5C 384.927,470.239 382.927,470.239 381,470.5C 379.225,467.956 377.392,467.956 375.5,470.5C 373.5,470.5 371.5,470.5 369.5,470.5C 369.002,469.397 368.669,468.397 368.5,467.5C 367.725,469.475 366.391,470.309 364.5,470C 365.398,463.915 366.065,457.248 366.5,450C 366.333,445.833 366.167,441.667 366,437.5C 365.346,438.696 364.846,438.696 364.5,437.5C 366.13,434.334 365.297,432 362,430.5C 361.383,429.551 361.549,428.718 362.5,428C 360.833,427.333 359.167,427.333 357.5,428C 361.363,429.814 361.03,430.98 356.5,431.5C 355.181,443.159 355.181,454.992 356.5,467C 356.046,468.622 355.046,469.788 353.5,470.5C 352.402,469.385 351.235,469.385 350,470.5C 349.5,470.333 349,470.167 348.5,470C 349.833,469.333 349.833,468.667 348.5,468C 347.167,467.833 345.833,467.667 344.5,467.5C 341.09,468.577 337.923,469.577 335,470.5C 332.511,468.527 332.344,466.694 334.5,465C 333.833,464.667 333.167,464.333 332.5,464C 333.649,455.579 333.816,447.079 333,438.5C 331.384,438.676 329.884,439.01 328.5,439.5C 329.59,441.003 330.757,441.336 332,440.5C 331.817,444.893 329.317,446.893 324.5,446.5C 324.358,454.333 324.191,462 324,469.5C 320.948,470.066 317.948,470.399 315,470.5C 313.674,470.245 312.674,469.578 312,468.5C 310.901,471.044 309.735,471.044 308.5,468.5C 310.991,467.459 310.991,466.626 308.5,466C 309.528,462.41 310.195,458.41 310.5,454C 310.333,451.167 310.167,448.333 310,445.5C 307.14,446.512 303.973,446.512 300.5,445.5C 301.04,444.252 301.707,443.085 302.5,442C 300.699,441.683 300.366,441.016 301.5,440C 301,439.5 300.5,439 300,438.5C 299.424,449.69 299.59,460.357 300.5,470.5C 298.193,470.014 296.027,470.014 294,470.5C 292.176,469.251 292.343,468.085 294.5,467C 294.167,466.833 293.833,466.667 293.5,466.5C 288.712,468.196 284.378,467.529 280.5,464.5C 280.384,458.799 280.218,453.132 280,447.5C 281.609,453.491 283.109,459.491 284.5,465.5C 287.5,465.5 290.5,465.5 293.5,465.5C 293.5,456.167 293.5,446.833 293.5,437.5C 291.5,437.5 289.5,437.5 287.5,437.5C 286.833,441.5 286.167,445.5 285.5,449.5C 284.828,445.812 283.995,442.145 283,438.5C 280.281,437.556 277.448,437.223 274.5,437.5C 274.5,446.833 274.5,456.167 274.5,465.5C 275.833,465.5 277.167,465.5 278.5,465.5C 279.953,466.825 279.619,467.658 277.5,468C 278.451,468.718 278.617,469.551 278,470.5C 275.812,469.553 273.478,469.553 271,470.5C 268.511,468.527 268.344,466.694 270.5,465C 269.833,464.667 269.167,464.333 268.5,464C 269.167,455.333 269.833,446.667 270.5,438C 267.833,437.333 267.833,436.667 270.5,436C 269.692,435.692 269.025,435.192 268.5,434.5C 268.835,432.997 268.835,431.664 268.5,430.5C 265.891,431.23 263.224,431.73 260.5,432C 259.833,432.667 259.167,433.333 258.5,434C 259.794,437.74 260.461,441.74 260.5,446C 260.499,450.015 260.165,453.849 259.5,457.5C 259.5,450.833 259.5,444.167 259.5,437.5C 257.167,437.5 254.833,437.5 252.5,437.5C 252.666,444.841 252.5,452.174 252,459.5C 250.667,460.833 249.333,460.833 248,459.5C 247.5,452.174 247.334,444.841 247.5,437.5C 245.167,437.5 242.833,437.5 240.5,437.5C 240.062,445.943 240.562,454.277 242,462.5C 245.681,465.36 249.848,466.193 254.5,465C 257.035,463.397 258.702,461.231 259.5,458.5C 259.301,461.011 258.968,463.178 258.5,465C 261.167,465.667 261.167,466.333 258.5,467C 259.167,467.333 259.833,467.667 260.5,468C 259.167,468.667 259.167,469.333 260.5,470C 258.343,470.078 256.343,470.245 254.5,470.5C 254.167,469.833 253.833,469.167 253.5,468.5C 252.11,470.203 250.61,470.87 249,470.5C 248.311,469.643 247.478,468.977 246.5,468.5C 245.304,468.846 245.304,469.346 246.5,470C 244.005,470.157 241.672,470.324 239.5,470.5C 238.522,470.023 237.689,469.357 237,468.5C 237.225,458.656 237.058,448.489 236.5,438C 238.527,436.604 238.86,434.938 237.5,433C 241.946,430.318 246.279,430.151 250.5,432.5C 251.553,431.562 252.22,430.395 252.5,429C 251.81,427.079 251.476,425.245 251.5,423.5C 252.09,422.201 253.09,421.368 254.5,421C 253.552,420.517 252.552,420.351 251.5,420.5C 252.541,415.534 250.874,413.867 246.5,415.5C 245.205,414.902 243.872,414.402 242.5,414C 243.696,413.346 243.696,412.846 242.5,412.5C 240.389,413.949 238.056,414.949 235.5,415.5C 230.593,414.873 225.593,414.706 220.5,415C 219.185,413.605 219.519,412.605 221.5,412C 220.692,411.692 220.025,411.192 219.5,410.5C 220.648,406.853 220.648,403.186 219.5,399.5C 208.985,398.709 198.652,398.543 188.5,399C 187.642,394.478 187.642,389.645 188.5,384.5C 186.854,383.34 185.021,382.673 183,382.5C 179.493,382.745 175.993,382.912 172.5,383C 171.688,377.924 171.355,372.757 171.5,367.5C 168.501,367.167 165.668,367.167 163,367.5C 160.755,366.863 158.588,366.03 156.5,365C 156.695,362.75 156.361,360.416 155.5,358C 155.439,356.289 156.106,354.956 157.5,354C 157.002,352.842 156.169,352.009 155,351.5C 150.047,351.276 145.214,350.943 140.5,350.5C 140.235,339.735 139.901,329.068 139.5,318.5C 138.5,318.5 137.5,318.5 136.5,318.5C 136.232,315.881 136.565,313.381 137.5,311C 135.241,311.439 132.908,311.939 130.5,312.5C 130.328,310.508 130.995,308.842 132.5,307.5C 129.914,306.52 127.247,306.187 124.5,306.5C 124.5,303.833 124.5,301.167 124.5,298.5C 127.518,298.665 130.518,298.498 133.5,298C 132.019,297.02 130.685,295.853 129.5,294.5C 128.158,296.005 126.492,296.672 124.5,296.5C 124.595,290.789 124.595,285.289 124.5,280C 125.167,279.667 125.833,279.333 126.5,279C 125.376,278.751 124.376,278.251 123.5,277.5C 123.983,259.432 123.983,241.932 123.5,225C 125.621,221.826 125.954,218.493 124.5,215C 125.264,212.931 125.764,210.764 126,208.5C 127.625,207.119 128.792,205.452 129.5,203.5C 129.333,202.833 129.167,202.167 129,201.5C 128.692,202.308 128.192,202.975 127.5,203.5C 125.503,203.014 124.169,201.847 123.5,200C 124.531,191.818 124.698,183.318 124,174.5C 128.925,174.012 134.091,173.679 139.5,173.5 Z"/></g>
<g><path style="opacity:1" fill="#af3537" d="M 356.5,414.5 C 329.411,422.558 302.077,423.558 274.5,417.5C 286.648,418.312 298.815,418.979 311,419.5C 317.833,419.167 324.667,418.833 331.5,418.5C 339.579,416.093 347.913,414.76 356.5,414.5 Z"/></g>
<g><path style="opacity:1" fill="#f1f1f1" d="M 97.5,458.5 C 96.669,451.869 96.3357,445.202 96.5,438.5C 93.5,438.5 90.5,438.5 87.5,438.5C 86.715,443.827 85.8816,449.161 85,454.5C 84.0565,449.173 83.2232,443.84 82.5,438.5C 79.5,438.5 76.5,438.5 73.5,438.5C 73.2141,447.502 72.8808,456.502 72.5,465.5C 74.5,465.5 76.5,465.5 78.5,465.5C 79.1667,461.167 79.8333,456.833 80.5,452.5C 80.6159,455.86 80.9492,459.193 81.5,462.5C 83.8333,462.5 86.1667,462.5 88.5,462.5C 88.5775,458.123 89.0775,453.79 90,449.5C 90.4994,454.823 90.666,460.156 90.5,465.5C 92.5,465.5 94.5,465.5 96.5,465.5C 97.531,466.249 98.6976,466.915 100,467.5C 100.617,468.449 100.451,469.282 99.5,470C 97.0049,470.157 94.6716,470.324 92.5,470.5C 90.8035,469.636 89.6368,468.303 89,466.5C 88.51,467.793 88.3433,469.127 88.5,470.5C 86.5229,469.851 84.6895,469.851 83,470.5C 81.7387,470.241 80.7387,469.574 80,468.5C 79.4806,469.516 78.6473,470.182 77.5,470.5C 74.9738,470.204 72.3071,470.037 69.5,470C 70.593,456.846 70.593,444.013 69.5,431.5C 80.1227,430.818 90.1227,430.818 99.5,431.5C 99.9404,437.173 100.274,442.84 100.5,448.5C 100.023,449.478 99.3567,450.311 98.5,451C 99.5156,451.519 100.182,452.353 100.5,453.5C 99.8016,454.863 99.8016,456.029 100.5,457C 99.4734,457.513 98.4734,458.013 97.5,458.5 Z"/></g>
<g><path style="opacity:1" fill="#f2f2f2" d="M 108.5,431.5 C 110.854,431.787 113.021,431.454 115,430.5C 116.646,432.055 116.979,433.721 116,435.5C 118.74,434.718 121.574,434.218 124.5,434C 124.381,432.719 124.881,431.552 126,430.5C 127.907,430.421 129.907,430.754 132,431.5C 132.667,438.833 132.667,446.167 132,453.5C 131.346,452.304 130.846,452.304 130.5,453.5C 131.489,454.468 132.156,455.635 132.5,457C 132.431,460.965 132.431,464.965 132.5,469C 132.167,469.5 131.833,470 131.5,470.5C 129.345,470.162 127.011,470.162 124.5,470.5C 124.5,469.5 124.5,468.5 124.5,467.5C 120.279,466.808 116.613,467.808 113.5,470.5C 111.883,470.331 110.216,469.997 108.5,469.5C 109.017,461.058 109.017,452.725 108.5,444.5C 111.167,442.167 111.167,439.833 108.5,437.5C 108.694,435.93 108.694,434.43 108.5,433C 111.097,432.221 111.097,431.721 108.5,431.5 Z"/></g>
<g><path style="opacity:1" fill="#f2f2f2" d="M 428.5,430.5 C 430.124,430.36 431.29,431.027 432,432.5C 432.388,431.572 433.055,430.905 434,430.5C 435.7,432.315 437.866,433.315 440.5,433.5C 441.833,433.333 443.167,433.167 444.5,433C 444.93,432.08 445.264,431.247 445.5,430.5C 447.655,430.838 449.989,430.838 452.5,430.5C 451.647,442.593 451.647,454.76 452.5,467C 452.046,468.622 451.046,469.788 449.5,470.5C 448.402,469.385 447.235,469.385 446,470.5C 445.5,470.333 445,470.167 444.5,470C 445.833,469.333 445.833,468.667 444.5,468C 440.291,466.811 436.624,467.644 433.5,470.5C 432.284,469.998 431.117,469.665 430,469.5C 428.066,467.581 428.233,466.081 430.5,465C 429.833,464.667 429.167,464.333 428.5,464C 429.638,452.894 429.638,441.727 428.5,430.5 Z"/></g>
<g><path style="opacity:1" fill="#f1f1f1" d="M 521.5,458.5 C 520.669,451.869 520.336,445.202 520.5,438.5C 517.5,438.5 514.5,438.5 511.5,438.5C 510.715,443.827 509.882,449.161 509,454.5C 508.057,449.173 507.223,443.84 506.5,438.5C 503.5,438.5 500.5,438.5 497.5,438.5C 497.214,447.502 496.881,456.502 496.5,465.5C 498.5,465.5 500.5,465.5 502.5,465.5C 503.167,461.167 503.833,456.833 504.5,452.5C 504.616,455.86 504.949,459.193 505.5,462.5C 507.833,462.5 510.167,462.5 512.5,462.5C 512.577,458.123 513.077,453.79 514,449.5C 514.499,454.823 514.666,460.156 514.5,465.5C 516.5,465.5 518.5,465.5 520.5,465.5C 521.531,466.249 522.698,466.915 524,467.5C 524.617,468.449 524.451,469.282 523.5,470C 521.005,470.157 518.672,470.324 516.5,470.5C 514.803,469.636 513.637,468.303 513,466.5C 512.51,467.793 512.343,469.127 512.5,470.5C 510.523,469.851 508.69,469.851 507,470.5C 505.739,470.241 504.739,469.574 504,468.5C 503.481,469.516 502.647,470.182 501.5,470.5C 498.974,470.204 496.307,470.037 493.5,470C 494.593,456.846 494.593,444.013 493.5,431.5C 504.123,430.818 514.123,430.818 523.5,431.5C 523.94,437.173 524.274,442.84 524.5,448.5C 524.023,449.478 523.357,450.311 522.5,451C 523.516,451.519 524.182,452.353 524.5,453.5C 523.802,454.863 523.802,456.029 524.5,457C 523.473,457.513 522.473,458.013 521.5,458.5 Z"/></g>
<g><path style="opacity:1" fill="#030303" d="M 39.5,437.5 C 41.8333,437.5 44.1667,437.5 46.5,437.5C 46.3337,444.508 46.5004,451.508 47,458.5C 48.6667,461.167 50.3333,461.167 52,458.5C 52.4996,451.508 52.6663,444.508 52.5,437.5C 54.5,437.5 56.5,437.5 58.5,437.5C 58.6664,445.174 58.4997,452.841 58,460.5C 56.2003,464.235 53.2003,465.902 49,465.5C 45.4552,465.961 42.7885,464.628 41,461.5C 39.5989,453.585 39.0989,445.585 39.5,437.5 Z"/></g>
<g><path style="opacity:1" fill="#080808" d="M 111.5,437.5 C 116.833,437.5 122.167,437.5 127.5,437.5C 127.664,440.187 127.497,442.854 127,445.5C 124.302,449.367 121.802,453.367 119.5,457.5C 122.5,458.167 125.5,458.833 128.5,459.5C 127.652,461.409 127.318,463.409 127.5,465.5C 121.833,465.5 116.167,465.5 110.5,465.5C 110.337,463.143 110.503,460.81 111,458.5C 113.635,453.702 116.468,449.035 119.5,444.5C 116.914,443.52 114.247,443.187 111.5,443.5C 111.5,441.5 111.5,439.5 111.5,437.5 Z"/></g>
<g><path style="opacity:1" fill="#0b0b0b" d="M 141.5,437.5 C 143.833,437.5 146.167,437.5 148.5,437.5C 148.334,444.508 148.5,451.508 149,458.5C 149.953,460.592 151.286,460.925 153,459.5C 153.5,452.174 153.666,444.841 153.5,437.5C 155.833,437.5 158.167,437.5 160.5,437.5C 160.666,445.174 160.5,452.841 160,460.5C 158.2,464.235 155.2,465.902 151,465.5C 147.37,466.019 144.704,464.685 143,461.5C 141.599,453.585 141.099,445.585 141.5,437.5 Z"/></g>
<g><path style="opacity:1" fill="#0b0b0b" d="M 183.5,436.5 C 187.937,435.892 191.603,437.225 194.5,440.5C 193.788,442.046 192.622,443.046 191,443.5C 186.908,441.51 183.908,442.51 182,446.5C 181.233,450.594 181.566,454.594 183,458.5C 187.489,461.543 189.322,460.209 188.5,454.5C 187.5,454.5 186.5,454.5 185.5,454.5C 185.5,452.5 185.5,450.5 185.5,448.5C 188.5,448.5 191.5,448.5 194.5,448.5C 194.827,453.544 194.494,458.544 193.5,463.5C 179.338,467.853 173.172,462.52 175,447.5C 175.945,442.233 178.779,438.566 183.5,436.5 Z"/></g>
<g><path style="opacity:1" fill="#0b0b0b" d="M 226.5,458.5 C 226.5,459.167 226.5,459.833 226.5,460.5C 223.056,465.191 218.39,466.691 212.5,465C 210.668,464.252 209.001,463.252 207.5,462C 208.787,460.59 209.954,459.09 211,457.5C 213.241,460.227 215.907,460.894 219,459.5C 219.781,458.056 219.614,456.723 218.5,455.5C 209.931,453.569 207.098,448.569 210,440.5C 214.719,435.634 219.719,435.301 225,439.5C 225.722,441.661 225.055,443.328 223,444.5C 220.415,441.872 217.915,441.872 215.5,444.5C 218.377,446.861 221.544,448.861 225,450.5C 226.252,453.014 226.752,455.68 226.5,458.5 Z"/></g>
<g><path style="opacity:1" fill="#0a0a0a" d="M 259.5,457.5 C 259.5,457.833 259.5,458.167 259.5,458.5C 258.702,461.231 257.035,463.397 254.5,465C 249.848,466.193 245.681,465.36 242,462.5C 240.562,454.277 240.062,445.943 240.5,437.5C 242.833,437.5 245.167,437.5 247.5,437.5C 247.334,444.841 247.5,452.174 248,459.5C 249.333,460.833 250.667,460.833 252,459.5C 252.5,452.174 252.666,444.841 252.5,437.5C 254.833,437.5 257.167,437.5 259.5,437.5C 259.5,444.167 259.5,450.833 259.5,457.5 Z"/></g>
<g><path style="opacity:1" fill="#0d0d0d" d="M 285.5,449.5 C 286.148,451.086 286.648,452.753 287,454.5C 287.499,448.843 287.666,443.176 287.5,437.5C 289.5,437.5 291.5,437.5 293.5,437.5C 293.5,446.833 293.5,456.167 293.5,465.5C 290.5,465.5 287.5,465.5 284.5,465.5C 283.109,459.491 281.609,453.491 280,447.5C 280.218,453.132 280.384,458.799 280.5,464.5C 280.158,465.338 279.492,465.672 278.5,465.5C 277.167,465.5 275.833,465.5 274.5,465.5C 274.5,456.167 274.5,446.833 274.5,437.5C 277.448,437.223 280.281,437.556 283,438.5C 283.995,442.145 284.828,445.812 285.5,449.5 Z"/></g>
<g><path style="opacity:1" fill="#050505" d="M 400.5,437.5 C 403.5,437.5 406.5,437.5 409.5,437.5C 412.718,457.205 414.051,457.205 413.5,437.5C 415.5,437.5 417.5,437.5 419.5,437.5C 419.5,446.833 419.5,456.167 419.5,465.5C 416.5,465.5 413.5,465.5 410.5,465.5C 407.249,444.435 405.916,444.435 406.5,465.5C 404.5,465.5 402.5,465.5 400.5,465.5C 400.5,456.167 400.5,446.833 400.5,437.5 Z"/></g>
<g><path style="opacity:1" fill="#090909" d="M 463.5,437.5 C 465.833,437.5 468.167,437.5 470.5,437.5C 470.5,440.833 470.5,444.167 470.5,447.5C 472.167,447.5 473.833,447.5 475.5,447.5C 475.5,444.167 475.5,440.833 475.5,437.5C 477.833,437.5 480.167,437.5 482.5,437.5C 482.5,446.833 482.5,456.167 482.5,465.5C 480.167,465.5 477.833,465.5 475.5,465.5C 475.5,461.833 475.5,458.167 475.5,454.5C 473.833,454.5 472.167,454.5 470.5,454.5C 470.5,458.167 470.5,461.833 470.5,465.5C 468.167,465.5 465.833,465.5 463.5,465.5C 463.5,456.167 463.5,446.833 463.5,437.5 Z"/></g>
<g><path style="opacity:1" fill="#0d0d0d" d="M 564.5,437.5 C 567.572,437.183 570.572,437.516 573.5,438.5C 574.821,442.784 575.988,447.117 577,451.5C 577.499,446.845 577.666,442.179 577.5,437.5C 579.5,437.5 581.5,437.5 583.5,437.5C 583.5,446.833 583.5,456.167 583.5,465.5C 580.552,465.777 577.719,465.444 575,464.5C 571.124,444.483 569.624,444.816 570.5,465.5C 568.5,465.5 566.5,465.5 564.5,465.5C 564.5,456.167 564.5,446.833 564.5,437.5 Z"/></g>
<g><path style="opacity:1" fill="#090909" d="M 97.5,458.5 C 97.8016,461.059 97.4682,463.393 96.5,465.5C 94.5,465.5 92.5,465.5 90.5,465.5C 90.666,460.156 90.4994,454.823 90,449.5C 89.0775,453.79 88.5775,458.123 88.5,462.5C 86.1667,462.5 83.8333,462.5 81.5,462.5C 80.9492,459.193 80.6159,455.86 80.5,452.5C 79.8153,450.586 79.3153,448.586 79,446.5C 78.5005,452.825 78.3338,459.158 78.5,465.5C 76.5,465.5 74.5,465.5 72.5,465.5C 72.8808,456.502 73.2141,447.502 73.5,438.5C 76.5,438.5 79.5,438.5 82.5,438.5C 83.2232,443.84 84.0565,449.173 85,454.5C 85.8816,449.161 86.715,443.827 87.5,438.5C 90.5,438.5 93.5,438.5 96.5,438.5C 96.3357,445.202 96.669,451.869 97.5,458.5 Z"/></g>
<g><path style="opacity:1" fill="#010101" d="M 324.5,443.5 C 322.5,443.5 320.5,443.5 318.5,443.5C 318.5,450.833 318.5,458.167 318.5,465.5C 316.5,465.5 314.5,465.5 312.5,465.5C 312.5,458.167 312.5,450.833 312.5,443.5C 310.5,443.5 308.5,443.5 306.5,443.5C 306.5,441.833 306.5,440.167 306.5,438.5C 312.5,438.5 318.5,438.5 324.5,438.5C 324.5,440.167 324.5,441.833 324.5,443.5 Z"/></g>
<g><path style="opacity:1" fill="#929292" d="M 353.5,438.5 C 348.5,438.5 343.5,438.5 338.5,438.5C 338.5,447.5 338.5,456.5 338.5,465.5C 337.506,456.348 337.173,447.015 337.5,437.5C 343.026,437.179 348.36,437.512 353.5,438.5 Z"/></g>
<g><path style="opacity:1" fill="#060606" d="M 353.5,438.5 C 352.699,440.042 352.366,441.708 352.5,443.5C 349.833,443.5 347.167,443.5 344.5,443.5C 344.5,445.167 344.5,446.833 344.5,448.5C 346.833,448.5 349.167,448.5 351.5,448.5C 351.5,450.5 351.5,452.5 351.5,454.5C 349.167,454.5 346.833,454.5 344.5,454.5C 344.5,456.167 344.5,457.833 344.5,459.5C 347.5,459.5 350.5,459.5 353.5,459.5C 353.5,461.5 353.5,463.5 353.5,465.5C 348.5,465.5 343.5,465.5 338.5,465.5C 338.5,456.5 338.5,447.5 338.5,438.5C 343.5,438.5 348.5,438.5 353.5,438.5 Z"/></g>
<g><path style="opacity:1" fill="#080808" d="M 380.5,438.5 C 382.708,439.023 384.208,440.356 385,442.5C 386.075,447.091 385.241,451.257 382.5,455C 384.044,458.587 385.711,462.087 387.5,465.5C 384.753,465.813 382.086,465.48 379.5,464.5C 375.236,452.233 373.569,452.566 374.5,465.5C 372.167,465.5 369.833,465.5 367.5,465.5C 367.5,456.5 367.5,447.5 367.5,438.5C 371.833,438.5 376.167,438.5 380.5,438.5 Z"/></g>
<g><path style="opacity:1" fill="#929292" d="M 449.5,438.5 C 444.5,438.5 439.5,438.5 434.5,438.5C 434.5,447.5 434.5,456.5 434.5,465.5C 433.506,456.348 433.173,447.015 433.5,437.5C 439.026,437.179 444.36,437.512 449.5,438.5 Z"/></g>
<g><path style="opacity:1" fill="#060606" d="M 449.5,438.5 C 448.699,440.042 448.366,441.708 448.5,443.5C 445.833,443.5 443.167,443.5 440.5,443.5C 440.5,445.167 440.5,446.833 440.5,448.5C 442.833,448.5 445.167,448.5 447.5,448.5C 447.5,450.5 447.5,452.5 447.5,454.5C 445.167,454.5 442.833,454.5 440.5,454.5C 440.5,456.167 440.5,457.833 440.5,459.5C 443.5,459.5 446.5,459.5 449.5,459.5C 449.5,461.5 449.5,463.5 449.5,465.5C 444.5,465.5 439.5,465.5 434.5,465.5C 434.5,456.5 434.5,447.5 434.5,438.5C 439.5,438.5 444.5,438.5 449.5,438.5 Z"/></g>
<g><path style="opacity:1" fill="#090909" d="M 521.5,458.5 C 521.802,461.059 521.468,463.393 520.5,465.5C 518.5,465.5 516.5,465.5 514.5,465.5C 514.666,460.156 514.499,454.823 514,449.5C 513.077,453.79 512.577,458.123 512.5,462.5C 510.167,462.5 507.833,462.5 505.5,462.5C 504.949,459.193 504.616,455.86 504.5,452.5C 503.815,450.586 503.315,448.586 503,446.5C 502.5,452.825 502.334,459.158 502.5,465.5C 500.5,465.5 498.5,465.5 496.5,465.5C 496.881,456.502 497.214,447.502 497.5,438.5C 500.5,438.5 503.5,438.5 506.5,438.5C 507.223,443.84 508.057,449.173 509,454.5C 509.882,449.161 510.715,443.827 511.5,438.5C 514.5,438.5 517.5,438.5 520.5,438.5C 520.336,445.202 520.669,451.869 521.5,458.5 Z"/></g>
<g><path style="opacity:1" fill="#0b0b0b" d="M 548.5,448.5 C 548.5,450.167 548.5,451.833 548.5,453.5C 546.265,453.205 544.265,453.539 542.5,454.5C 542.5,456.167 542.5,457.833 542.5,459.5C 545.167,459.5 547.833,459.5 550.5,459.5C 550.5,461.5 550.5,463.5 550.5,465.5C 545.5,465.5 540.5,465.5 535.5,465.5C 535.5,456.167 535.5,446.833 535.5,437.5C 540.5,437.5 545.5,437.5 550.5,437.5C 550.5,439.5 550.5,441.5 550.5,443.5C 547.833,443.5 545.167,443.5 542.5,443.5C 542.5,445.167 542.5,446.833 542.5,448.5C 544.5,448.5 546.5,448.5 548.5,448.5 Z"/></g>
<g><path style="opacity:1" fill="#838383" d="M 287.5,437.5 C 287.666,443.176 287.499,448.843 287,454.5C 286.648,452.753 286.148,451.086 285.5,449.5C 286.167,445.5 286.833,441.5 287.5,437.5 Z"/></g>
<g><path style="opacity:1" fill="#e5e5e5" d="M 374.5,443.5 C 378.473,444.075 379.473,446.242 377.5,450C 376.552,450.483 375.552,450.649 374.5,450.5C 374.5,448.167 374.5,445.833 374.5,443.5 Z"/></g>
<g><path style="opacity:1" fill="#bcbcbc" d="M 306.5,443.5 C 308.5,443.5 310.5,443.5 312.5,443.5C 312.5,450.833 312.5,458.167 312.5,465.5C 311.509,458.687 311.175,451.687 311.5,444.5C 309.585,444.784 307.919,444.451 306.5,443.5 Z"/></g>
<g><path style="opacity:1" fill="#696969" d="M 324.5,443.5 C 323.081,444.451 321.415,444.784 319.5,444.5C 319.825,451.687 319.491,458.687 318.5,465.5C 318.5,458.167 318.5,450.833 318.5,443.5C 320.5,443.5 322.5,443.5 324.5,443.5 Z"/></g>
<g><path style="opacity:1" fill="#f1f1f1" d="M 226.5,458.5 C 226.752,455.68 226.252,453.014 225,450.5C 221.544,448.861 218.377,446.861 215.5,444.5C 217.915,441.872 220.415,441.872 223,444.5C 225.055,443.328 225.722,441.661 225,439.5C 219.719,435.301 214.719,435.634 210,440.5C 207.098,448.569 209.931,453.569 218.5,455.5C 219.614,456.723 219.781,458.056 219,459.5C 215.907,460.894 213.241,460.227 211,457.5C 209.954,459.09 208.787,460.59 207.5,462C 209.001,463.252 210.668,464.252 212.5,465C 218.39,466.691 223.056,465.191 226.5,460.5C 228.37,462.818 229.037,465.318 228.5,468C 227.646,469.022 226.646,469.855 225.5,470.5C 223.297,470.413 221.13,470.413 219,470.5C 219.617,468.905 219.284,467.572 218,466.5C 217.71,468.044 217.044,469.377 216,470.5C 212.527,470.022 208.861,470.022 205,470.5C 204.833,468.5 204.667,466.5 204.5,464.5C 204.827,458.304 204.827,452.137 204.5,446C 204.905,445.055 205.572,444.388 206.5,444C 205.833,443.667 205.167,443.333 204.5,443C 205.435,439.603 205.435,436.103 204.5,432.5C 205.735,429.956 206.901,429.956 208,432.5C 209.667,429.833 211.333,429.833 213,432.5C 214.549,429.997 216.216,429.997 218,432.5C 218.519,431.484 219.353,430.818 220.5,430.5C 222.774,430.711 225.107,431.045 227.5,431.5C 228.223,436.26 228.557,441.093 228.5,446C 228.245,447.326 227.578,448.326 226.5,449C 227.167,449.333 227.833,449.667 228.5,450C 227.167,451 227.167,452 228.5,453C 227.891,454.948 227.224,456.782 226.5,458.5 Z"/></g>
<g><path style="opacity:1" fill="#5a5a5a" d="M 548.5,448.5 C 549.461,450.265 549.795,452.265 549.5,454.5C 547.167,454.5 544.833,454.5 542.5,454.5C 544.265,453.539 546.265,453.205 548.5,453.5C 548.5,451.833 548.5,450.167 548.5,448.5 Z"/></g>
<g><path style="opacity:1" fill="#535353" d="M 80.5,452.5 C 79.8333,456.833 79.1667,461.167 78.5,465.5C 78.3338,459.158 78.5005,452.825 79,446.5C 79.3153,448.586 79.8153,450.586 80.5,452.5 Z"/></g>
<g><path style="opacity:1" fill="#535353" d="M 504.5,452.5 C 503.833,456.833 503.167,461.167 502.5,465.5C 502.334,459.158 502.5,452.825 503,446.5C 503.315,448.586 503.815,450.586 504.5,452.5 Z"/></g>
<g><path style="opacity:1" fill="#050505" d="M 390.5,503.5 C 396.78,503.147 402.114,505.147 406.5,509.5C 404.862,512.304 403.029,514.971 401,517.5C 394.938,512.693 390.272,513.693 387,520.5C 386.333,526.833 386.333,533.167 387,539.5C 390.411,546.353 395.245,547.353 401.5,542.5C 403.66,544.831 405.66,547.331 407.5,550C 400.108,556.979 391.774,558.313 382.5,554C 377.715,549.931 374.881,544.764 374,538.5C 372.484,529.026 373.817,520.026 378,511.5C 379.833,509.667 381.667,507.833 383.5,506C 386.004,505.302 388.337,504.469 390.5,503.5 Z"/></g>
<g><path style="opacity:1" fill="#030303" d="M 260.5,504.5 C 267.896,504.2 275.229,504.7 282.5,506C 290.34,510.151 293.173,516.651 291,525.5C 290.009,529.488 287.842,532.655 284.5,535C 287.218,540.996 290.218,546.83 293.5,552.5C 293.5,552.833 293.5,553.167 293.5,553.5C 289.366,554.485 285.032,554.818 280.5,554.5C 278.181,549.193 275.848,543.859 273.5,538.5C 272.675,537.614 271.675,537.281 270.5,537.5C 270.5,543.5 270.5,549.5 270.5,555.5C 266.5,555.5 262.5,555.5 258.5,555.5C 257.848,538.134 258.514,521.134 260.5,504.5 Z"/></g>
<g><path style="opacity:1" fill="#060606" d="M 347.5,512.5 C 345.863,514.316 344.363,516.316 343,518.5C 339.51,514.953 335.343,513.786 330.5,515C 329.24,516.814 329.24,518.647 330.5,520.5C 336.582,522.954 342.082,526.287 347,530.5C 352.122,541.802 349.289,550.302 338.5,556C 334.848,556.499 331.182,556.665 327.5,556.5C 323.054,555.694 319.221,553.694 316,550.5C 315.333,549.5 315.333,548.5 316,547.5C 318.043,545.792 319.71,543.792 321,541.5C 325.352,546.296 330.352,547.296 336,544.5C 336.667,542.833 336.667,541.167 336,539.5C 331.774,536.634 327.274,534.134 322.5,532C 317.663,527.183 315.83,521.35 317,514.5C 319.943,507.361 325.276,504.028 333,504.5C 339.343,503.945 344.509,506.112 348.5,511C 347.944,511.383 347.611,511.883 347.5,512.5 Z"/></g>
<g><path style="opacity:1" fill="#030303" d="M 158.5,505.5 C 162.5,505.5 166.5,505.5 170.5,505.5C 170.334,513.174 170.5,520.841 171,528.5C 174.706,520.922 178.539,513.422 182.5,506C 186.541,505.173 190.541,505.34 194.5,506.5C 190.953,513.76 187.287,520.927 183.5,528C 187.841,537.015 192.175,546.015 196.5,555C 191.833,555.667 187.167,555.667 182.5,555C 178.477,546.601 174.643,538.101 171,529.5C 170.5,538.16 170.334,546.827 170.5,555.5C 166.5,555.5 162.5,555.5 158.5,555.5C 158.5,538.833 158.5,522.167 158.5,505.5 Z"/></g>
<g><path style="opacity:1" fill="#000000" d="M 219.5,505.5 C 223.5,505.5 227.5,505.5 231.5,505.5C 231.5,522.167 231.5,538.833 231.5,555.5C 227.5,555.5 223.5,555.5 219.5,555.5C 219.5,538.833 219.5,522.167 219.5,505.5 Z"/></g>
<g><path style="opacity:1" fill="#090909" d="M 443.5,505.5 C 443.5,511.833 443.5,518.167 443.5,524.5C 447.042,524.813 450.375,524.479 453.5,523.5C 453.5,517.5 453.5,511.5 453.5,505.5C 457.833,505.5 462.167,505.5 466.5,505.5C 466.5,522.167 466.5,538.833 466.5,555.5C 462.167,555.5 457.833,555.5 453.5,555.5C 453.5,548.833 453.5,542.167 453.5,535.5C 450.5,535.5 447.5,535.5 444.5,535.5C 444.5,542.167 444.5,548.833 444.5,555.5C 440.167,555.5 435.833,555.5 431.5,555.5C 431.5,538.833 431.5,522.167 431.5,505.5C 435.5,505.5 439.5,505.5 443.5,505.5 Z"/></g>
<g><path style="opacity:1" fill="#666666" d="M 443.5,505.5 C 444.49,511.31 444.823,517.31 444.5,523.5C 447.5,523.5 450.5,523.5 453.5,523.5C 450.375,524.479 447.042,524.813 443.5,524.5C 443.5,518.167 443.5,511.833 443.5,505.5 Z"/></g>
<g><path style="opacity:1" fill="#e0e0e0" d="M 270.5,514.5 C 278.835,514.67 281.169,518.503 277.5,526C 275.323,527.202 272.989,527.702 270.5,527.5C 270.5,523.167 270.5,518.833 270.5,514.5 Z"/></g>
<g><path style="opacity:1" fill="#f1f1f1" d="M 347.5,512.5 C 348.498,516.678 348.498,520.678 347.5,524.5C 348,525.5 348.5,526.5 349,527.5C 351.333,527.167 353.667,526.833 356,526.5C 356.49,527.793 356.657,529.127 356.5,530.5C 352.805,529.874 351.971,530.874 354,533.5C 354.893,532.289 355.726,532.289 356.5,533.5C 356.473,538.808 356.139,544.475 355.5,550.5C 353.5,550.5 351.5,550.5 349.5,550.5C 348.271,552.923 347.271,555.423 346.5,558C 342.998,558.282 339.665,558.449 336.5,558.5C 333.36,557.911 330.36,557.244 327.5,556.5C 331.182,556.665 334.848,556.499 338.5,556C 349.289,550.302 352.122,541.802 347,530.5C 342.082,526.287 336.582,522.954 330.5,520.5C 329.24,518.647 329.24,516.814 330.5,515C 335.343,513.786 339.51,514.953 343,518.5C 344.363,516.316 345.863,514.316 347.5,512.5 Z"/></g>
<g><path style="opacity:1" fill="#f0f0f0" d="M 260.5,504.5 C 258.514,521.134 257.848,538.134 258.5,555.5C 262.5,555.5 266.5,555.5 270.5,555.5C 270.5,549.5 270.5,543.5 270.5,537.5C 271.675,537.281 272.675,537.614 273.5,538.5C 275.848,543.859 278.181,549.193 280.5,554.5C 285.015,555.812 289.682,555.812 294.5,554.5C 294.376,553.893 294.043,553.56 293.5,553.5C 293.5,553.167 293.5,552.833 293.5,552.5C 295.369,550.424 297.536,550.091 300,551.5C 299.954,553.313 300.12,554.979 300.5,556.5C 300.113,557.72 299.28,558.387 298,558.5C 296.667,557.167 295.333,557.167 294,558.5C 293.333,557.833 292.667,557.167 292,556.5C 291.055,556.905 290.388,557.572 290,558.5C 288.089,558.255 286.089,558.255 284,558.5C 283.667,557.833 283.333,557.167 283,556.5C 281.302,557.733 279.302,558.4 277,558.5C 273.096,558.073 269.263,557.406 265.5,556.5C 261.343,558.215 257.343,558.881 253.5,558.5C 252.348,555.894 252.182,553.227 253,550.5C 253.333,551.167 253.667,551.833 254,552.5C 254.167,545.5 254.333,538.5 254.5,531.5C 254.254,521.713 253.587,512.213 252.5,503C 253.996,502.493 255.163,502.993 256,504.5C 257.804,502.019 259.304,502.019 260.5,504.5 Z"/></g>
<g><path style="opacity:1" fill="#686868" d="M 293.5,553.5 C 294.043,553.56 294.376,553.893 294.5,554.5C 289.682,555.812 285.015,555.812 280.5,554.5C 285.032,554.818 289.366,554.485 293.5,553.5 Z"/></g>
</svg>
