<?xml version="1.0" encoding="UTF-8" standalone="no"?> <svg id="Layer_1" data-name="Layer 1" xmlns="http://www.w3.org/2000/svg" viewBox="0 0 512 512"><title>Notification</title><path d="M441.752,390.248a123.521,123.521,0,0,1-36.419-87.921V213.332a148.035,148.035,0,0,0-29.942-89.7,150.889,150.889,0,0,0-60.864-47.685,58.668,58.668,0,0,0-117.056,0,150.9,150.9,0,0,0-60.864,47.685,148.041,148.041,0,0,0-29.942,89.7v88.995a123.521,123.521,0,0,1-36.419,87.921,21.334,21.334,0,0,0,15.085,36.419H192a64,64,0,0,0,128,0H426.667a21.334,21.334,0,0,0,15.085-36.419ZM256,448a21.357,21.357,0,0,1-21.333-21.333h42.667A21.357,21.357,0,0,1,256,448ZM128.086,384a166.086,166.086,0,0,0,21.247-81.673V213.332a106.06,106.06,0,0,1,75.548-102.045A21.334,21.334,0,0,0,240,90.879V80a16,16,0,1,1,32,0V90.88a21.334,21.334,0,0,0,15.119,20.408,106.059,106.059,0,0,1,75.548,102.044v88.995A166.086,166.086,0,0,0,383.914,384Z"/></svg>